<?xml version="1.0" standalone="no"?><svg xmlns="http://www.w3.org/2000/svg" viewBox="0 0 1440 320"><path fill="#6f4e37" fill-opacity="0.6" d="M0,96L6.2,90.7C12.3,85,25,75,37,101.3C49.2,128,62,192,74,224C86.2,256,98,256,111,218.7C123.1,181,135,107,148,80C160,53,172,75,185,96C196.9,117,209,139,222,149.3C233.8,160,246,160,258,149.3C270.8,139,283,117,295,128C307.7,139,320,181,332,208C344.6,235,357,245,369,256C381.5,267,394,277,406,250.7C418.5,224,431,160,443,160C455.4,160,468,224,480,240C492.3,256,505,224,517,197.3C529.2,171,542,149,554,170.7C566.2,192,578,256,591,288C603.1,320,615,320,628,314.7C640,309,652,299,665,272C676.9,245,689,203,702,154.7C713.8,107,726,53,738,74.7C750.8,96,763,192,775,234.7C787.7,277,800,267,812,224C824.6,181,837,107,849,117.3C861.5,128,874,224,886,250.7C898.5,277,911,235,923,229.3C935.4,224,948,256,960,272C972.3,288,985,288,997,266.7C1009.2,245,1022,203,1034,176C1046.2,149,1058,139,1071,154.7C1083.1,171,1095,213,1108,208C1120,203,1132,149,1145,154.7C1156.9,160,1169,224,1182,213.3C1193.8,203,1206,117,1218,74.7C1230.8,32,1243,32,1255,48C1267.7,64,1280,96,1292,112C1304.6,128,1317,128,1329,106.7C1341.5,85,1354,43,1366,58.7C1378.5,75,1391,149,1403,192C1415.4,235,1428,245,1434,250.7L1440,256L1440,0L1433.8,0C1427.7,0,1415,0,1403,0C1390.8,0,1378,0,1366,0C1353.8,0,1342,0,1329,0C1316.9,0,1305,0,1292,0C1280,0,1268,0,1255,0C1243.1,0,1231,0,1218,0C1206.2,0,1194,0,1182,0C1169.2,0,1157,0,1145,0C1132.3,0,1120,0,1108,0C1095.4,0,1083,0,1071,0C1058.5,0,1046,0,1034,0C1021.5,0,1009,0,997,0C984.6,0,972,0,960,0C947.7,0,935,0,923,0C910.8,0,898,0,886,0C873.8,0,862,0,849,0C836.9,0,825,0,812,0C800,0,788,0,775,0C763.1,0,751,0,738,0C726.2,0,714,0,702,0C689.2,0,677,0,665,0C652.3,0,640,0,628,0C615.4,0,603,0,591,0C578.5,0,566,0,554,0C541.5,0,529,0,517,0C504.6,0,492,0,480,0C467.7,0,455,0,443,0C430.8,0,418,0,406,0C393.8,0,382,0,369,0C356.9,0,345,0,332,0C320,0,308,0,295,0C283.1,0,271,0,258,0C246.2,0,234,0,222,0C209.2,0,197,0,185,0C172.3,0,160,0,148,0C135.4,0,123,0,111,0C98.5,0,86,0,74,0C61.5,0,49,0,37,0C24.6,0,12,0,6,0L0,0Z"></path></svg>