<?xml version="1.0" standalone="no"?><svg xmlns="http://www.w3.org/2000/svg" viewBox="0 0 1440 320"><path fill="#ffffff" fill-opacity="1" d="M0,96L34.3,122.7C68.6,149,137,203,206,192C274.3,181,343,107,411,64C480,21,549,11,617,26.7C685.7,43,754,85,823,128C891.4,171,960,213,1029,213.3C1097.1,213,1166,171,1234,160C1302.9,149,1371,171,1406,181.3L1440,192L1440,0L1405.7,0C1371.4,0,1303,0,1234,0C1165.7,0,1097,0,1029,0C960,0,891,0,823,0C754.3,0,686,0,617,0C548.6,0,480,0,411,0C342.9,0,274,0,206,0C137.1,0,69,0,34,0L0,0Z"></path></svg>