<?xml version="1.0" standalone="no"?><svg xmlns="http://www.w3.org/2000/svg" viewBox="0 0 1440 320"><path fill="#ffffff" fill-opacity="1" d="M0,64L30,85.3C60,107,120,149,180,186.7C240,224,300,256,360,245.3C420,235,480,181,540,176C600,171,660,213,720,213.3C780,213,840,171,900,138.7C960,107,1020,85,1080,101.3C1140,117,1200,171,1260,170.7C1320,171,1380,117,1410,90.7L1440,64L1440,0L1410,0C1380,0,1320,0,1260,0C1200,0,1140,0,1080,0C1020,0,960,0,900,0C840,0,780,0,720,0C660,0,600,0,540,0C480,0,420,0,360,0C300,0,240,0,180,0C120,0,60,0,30,0L0,0Z"></path></svg>