<?xml version="1.0" standalone="no"?><svg xmlns="http://www.w3.org/2000/svg" viewBox="0 0 1440 320"><path fill="#6f4e37" fill-opacity="0.6" d="M0,192L30,197.3C60,203,120,213,180,218.7C240,224,300,224,360,192C420,160,480,96,540,96C600,96,660,160,720,208C780,256,840,288,900,298.7C960,309,1020,299,1080,256C1140,213,1200,139,1260,117.3C1320,96,1380,128,1410,144L1440,160L1440,0L1410,0C1380,0,1320,0,1260,0C1200,0,1140,0,1080,0C1020,0,960,0,900,0C840,0,780,0,720,0C660,0,600,0,540,0C480,0,420,0,360,0C300,0,240,0,180,0C120,0,60,0,30,0L0,0Z"></path></svg>