<?xml version="1.0" standalone="no"?><svg xmlns="http://www.w3.org/2000/svg" viewBox="0 0 1440 320"><path fill="#6f4e37" fill-opacity="0.6" d="M0,256L30,250.7C60,245,120,235,180,202.7C240,171,300,117,360,101.3C420,85,480,107,540,117.3C600,128,660,128,720,112C780,96,840,64,900,64C960,64,1020,96,1080,101.3C1140,107,1200,85,1260,85.3C1320,85,1380,107,1410,117.3L1440,128L1440,320L1410,320C1380,320,1320,320,1260,320C1200,320,1140,320,1080,320C1020,320,960,320,900,320C840,320,780,320,720,320C660,320,600,320,540,320C480,320,420,320,360,320C300,320,240,320,180,320C120,320,60,320,30,320L0,320Z"></path></svg>