<?xml version="1.0" standalone="no"?><svg xmlns="http://www.w3.org/2000/svg" viewBox="0 0 1440 320"><path fill="#ffffff" fill-opacity="1" d="M0,224L20,240C40,256,80,288,120,256C160,224,200,128,240,80C280,32,320,32,360,53.3C400,75,440,117,480,128C520,139,560,117,600,112C640,107,680,117,720,128C760,139,800,149,840,133.3C880,117,920,75,960,85.3C1000,96,1040,160,1080,181.3C1120,203,1160,181,1200,197.3C1240,213,1280,267,1320,240C1360,213,1400,107,1420,53.3L1440,0L1440,0L1420,0C1400,0,1360,0,1320,0C1280,0,1240,0,1200,0C1160,0,1120,0,1080,0C1040,0,1000,0,960,0C920,0,880,0,840,0C800,0,760,0,720,0C680,0,640,0,600,0C560,0,520,0,480,0C440,0,400,0,360,0C320,0,280,0,240,0C200,0,160,0,120,0C80,0,40,0,20,0L0,0Z"></path></svg>