<?xml version="1.0" standalone="no"?><svg xmlns="http://www.w3.org/2000/svg" viewBox="0 0 1440 320"><path fill="#6f4e37" fill-opacity="0.6" d="M0,160L20,144C40,128,80,96,120,122.7C160,149,200,235,240,272C280,309,320,299,360,293.3C400,288,440,288,480,261.3C520,235,560,181,600,149.3C640,117,680,107,720,117.3C760,128,800,160,840,170.7C880,181,920,171,960,144C1000,117,1040,75,1080,96C1120,117,1160,203,1200,229.3C1240,256,1280,224,1320,186.7C1360,149,1400,107,1420,85.3L1440,64L1440,0L1420,0C1400,0,1360,0,1320,0C1280,0,1240,0,1200,0C1160,0,1120,0,1080,0C1040,0,1000,0,960,0C920,0,880,0,840,0C800,0,760,0,720,0C680,0,640,0,600,0C560,0,520,0,480,0C440,0,400,0,360,0C320,0,280,0,240,0C200,0,160,0,120,0C80,0,40,0,20,0L0,0Z"></path></svg>