<svg width="100%" height="100%" id="svg" viewBox="0 0 1440 700" xmlns="http://www.w3.org/2000/svg" class="transition duration-300 ease-in-out delay-150"><defs><linearGradient id="gradient" x1="50%" y1="0%" x2="50%" y2="100%"><stop offset="5%" stop-color="#eb144c66"></stop><stop offset="95%" stop-color="#ff690066"></stop></linearGradient></defs><path d="M 0,700 C 0,700 0,175 0,175 C 106.50717703349281,185.0956937799043 213.01435406698562,195.19138755980862 313,211 C 412.9856459330144,226.80861244019138 506.4497607655502,248.3301435406698 585,232 C 663.5502392344498,215.6698564593302 727.1866028708135,161.48803827751198 821,139 C 914.8133971291865,116.51196172248802 1038.8038277511962,125.71770334928229 1147,137 C 1255.1961722488038,148.2822966507177 1347.598086124402,161.64114832535887 1440,175 C 1440,175 1440,700 1440,700 Z" stroke="none" stroke-width="0" fill="url(#gradient)" class="transition-all duration-300 ease-in-out delay-150 path-0"></path><defs><linearGradient id="gradient" x1="50%" y1="0%" x2="50%" y2="100%"><stop offset="5%" stop-color="#eb144c88"></stop><stop offset="95%" stop-color="#ff690088"></stop></linearGradient></defs><path d="M 0,700 C 0,700 0,350 0,350 C 106.58373205741626,319.7129186602871 213.1674641148325,289.4258373205742 300,312 C 386.8325358851675,334.5741626794258 453.9138755980862,410.00956937799043 555,408 C 656.0861244019138,405.99043062200957 791.177033492823,326.5358851674641 893,324 C 994.822966507177,321.4641148325359 1063.377990430622,395.8468899521531 1149,413 C 1234.622009569378,430.1531100478469 1337.311004784689,390.07655502392345 1440,350 C 1440,350 1440,700 1440,700 Z" stroke="none" stroke-width="0" fill="url(#gradient)" class="transition-all duration-300 ease-in-out delay-150 path-1"></path><defs><linearGradient id="gradient" x1="50%" y1="0%" x2="50%" y2="100%"><stop offset="5%" stop-color="#eb144cff"></stop><stop offset="95%" stop-color="#ff6900ff"></stop></linearGradient></defs><path d="M 0,700 C 0,700 0,525 0,525 C 71.60765550239233,502.3875598086124 143.21531100478467,479.77511961722485 259,496 C 374.78468899521533,512.2248803827752 534.7464114832537,567.2870813397129 626,586 C 717.2535885167463,604.7129186602871 739.7990430622009,587.0765550239234 814,578 C 888.2009569377991,568.9234449760766 1014.0574162679427,568.4066985645933 1127,561 C 1239.9425837320573,553.5933014354067 1339.9712918660287,539.2966507177034 1440,525 C 1440,525 1440,700 1440,700 Z" stroke="none" stroke-width="0" fill="url(#gradient)" class="transition-all duration-300 ease-in-out delay-150 path-2"></path></svg>
