<svg width="100%" height="100%" id="svg" viewBox="0 0 1440 700" xmlns="http://www.w3.org/2000/svg" class="transition duration-300 ease-in-out delay-150"><defs><linearGradient id="gradient" x1="50%" y1="0%" x2="50%" y2="100%"><stop offset="5%" stop-color="#fdb3a544"></stop><stop offset="95%" stop-color="#ff5fa244"></stop></linearGradient></defs><path d="M 0,700 C 0,700 0,140 0,140 C 96.88995215311004,134.1818181818182 193.7799043062201,128.36363636363635 292,135 C 390.2200956937799,141.63636363636365 489.7703349282298,160.72727272727275 572,163 C 654.2296650717702,165.27272727272725 719.1387559808611,150.72727272727272 815,137 C 910.8612440191389,123.27272727272728 1037.6746411483255,110.36363636363637 1147,111 C 1256.3253588516745,111.63636363636363 1348.1626794258373,125.81818181818181 1440,140 C 1440,140 1440,700 1440,700 Z" stroke="none" stroke-width="0" fill="url(#gradient)" class="transition-all duration-300 ease-in-out delay-150 path-0"></path><defs><linearGradient id="gradient" x1="50%" y1="0%" x2="50%" y2="100%"><stop offset="5%" stop-color="#fdb3a566"></stop><stop offset="95%" stop-color="#ff5fa266"></stop></linearGradient></defs><path d="M 0,700 C 0,700 0,280 0,280 C 81.46411483253587,296.066985645933 162.92822966507174,312.13397129186603 243,305 C 323.07177033492826,297.86602870813397 401.7511961722488,267.53110047846894 522,251 C 642.2488038277512,234.46889952153106 804.0669856459331,231.74162679425837 899,249 C 993.9330143540669,266.25837320574163 1021.980861244019,303.50239234449765 1101,312 C 1180.019138755981,320.49760765550235 1310.0095693779904,300.2488038277512 1440,280 C 1440,280 1440,700 1440,700 Z" stroke="none" stroke-width="0" fill="url(#gradient)" class="transition-all duration-300 ease-in-out delay-150 path-1"></path><defs><linearGradient id="gradient" x1="50%" y1="0%" x2="50%" y2="100%"><stop offset="5%" stop-color="#fdb3a588"></stop><stop offset="95%" stop-color="#ff5fa288"></stop></linearGradient></defs><path d="M 0,700 C 0,700 0,420 0,420 C 72.88995215311004,393.95215311004785 145.7799043062201,367.9043062200957 244,376 C 342.2200956937799,384.0956937799043 465.77033492822966,426.3349282296651 568,443 C 670.2296650717703,459.6650717703349 751.1387559808612,450.755980861244 848,440 C 944.8612440191388,429.244019138756 1057.6746411483255,416.64114832535887 1159,413 C 1260.3253588516745,409.35885167464113 1350.1626794258373,414.67942583732054 1440,420 C 1440,420 1440,700 1440,700 Z" stroke="none" stroke-width="0" fill="url(#gradient)" class="transition-all duration-300 ease-in-out delay-150 path-2"></path><defs><linearGradient id="gradient" x1="50%" y1="0%" x2="50%" y2="100%"><stop offset="5%" stop-color="#fdb3a5ff"></stop><stop offset="95%" stop-color="#ff5fa2ff"></stop></linearGradient></defs><path d="M 0,700 C 0,700 0,560 0,560 C 114.94736842105263,589.0047846889952 229.89473684210526,618.0095693779905 312,606 C 394.10526315789474,593.9904306220095 443.36842105263156,540.9665071770333 534,528 C 624.6315789473684,515.0334928229667 756.6315789473683,542.1244019138757 875,548 C 993.3684210526317,553.8755980861243 1098.1052631578948,538.5358851674641 1190,537 C 1281.8947368421052,535.4641148325359 1360.9473684210525,547.7320574162679 1440,560 C 1440,560 1440,700 1440,700 Z" stroke="none" stroke-width="0" fill="url(#gradient)" class="transition-all duration-300 ease-in-out delay-150 path-3"></path></svg>
