<?xml version="1.0" standalone="no"?><svg xmlns="http://www.w3.org/2000/svg" viewBox="0 0 1440 320"><path fill="#ffffff" fill-opacity="1" d="M0,160L20,160C40,160,80,160,120,133.3C160,107,200,53,240,48C280,43,320,85,360,90.7C400,96,440,64,480,53.3C520,43,560,53,600,69.3C640,85,680,107,720,117.3C760,128,800,128,840,138.7C880,149,920,171,960,149.3C1000,128,1040,64,1080,37.3C1120,11,1160,21,1200,74.7C1240,128,1280,224,1320,250.7C1360,277,1400,235,1420,213.3L1440,192L1440,0L1420,0C1400,0,1360,0,1320,0C1280,0,1240,0,1200,0C1160,0,1120,0,1080,0C1040,0,1000,0,960,0C920,0,880,0,840,0C800,0,760,0,720,0C680,0,640,0,600,0C560,0,520,0,480,0C440,0,400,0,360,0C320,0,280,0,240,0C200,0,160,0,120,0C80,0,40,0,20,0L0,0Z"></path></svg>