<?xml version="1.0" standalone="no"?><svg xmlns="http://www.w3.org/2000/svg" viewBox="0 0 1440 320"><path fill="#ffffff" fill-opacity="1" d="M0,128L17.1,160C34.3,192,69,256,103,250.7C137.1,245,171,171,206,144C240,117,274,139,309,138.7C342.9,139,377,117,411,122.7C445.7,128,480,160,514,181.3C548.6,203,583,213,617,213.3C651.4,213,686,203,720,213.3C754.3,224,789,256,823,234.7C857.1,213,891,139,926,112C960,85,994,107,1029,112C1062.9,117,1097,107,1131,117.3C1165.7,128,1200,160,1234,186.7C1268.6,213,1303,235,1337,229.3C1371.4,224,1406,192,1423,176L1440,160L1440,0L1422.9,0C1405.7,0,1371,0,1337,0C1302.9,0,1269,0,1234,0C1200,0,1166,0,1131,0C1097.1,0,1063,0,1029,0C994.3,0,960,0,926,0C891.4,0,857,0,823,0C788.6,0,754,0,720,0C685.7,0,651,0,617,0C582.9,0,549,0,514,0C480,0,446,0,411,0C377.1,0,343,0,309,0C274.3,0,240,0,206,0C171.4,0,137,0,103,0C68.6,0,34,0,17,0L0,0Z"></path></svg>