<?xml version="1.0" standalone="no"?><svg xmlns="http://www.w3.org/2000/svg" viewBox="0 0 1440 320"><path fill="#ffffff" fill-opacity="1" d="M0,224L30,202.7C60,181,120,139,180,122.7C240,107,300,117,360,144C420,171,480,213,540,208C600,203,660,149,720,133.3C780,117,840,139,900,154.7C960,171,1020,181,1080,176C1140,171,1200,149,1260,133.3C1320,117,1380,107,1410,101.3L1440,96L1440,320L1410,320C1380,320,1320,320,1260,320C1200,320,1140,320,1080,320C1020,320,960,320,900,320C840,320,780,320,720,320C660,320,600,320,540,320C480,320,420,320,360,320C300,320,240,320,180,320C120,320,60,320,30,320L0,320Z"></path></svg>