<?xml version="1.0" standalone="no"?><svg xmlns="http://www.w3.org/2000/svg" viewBox="0 0 1440 320"><path fill="#6f4e37" fill-opacity="0.6" d="M0,256L20,256C40,256,80,256,120,213.3C160,171,200,85,240,58.7C280,32,320,64,360,80C400,96,440,96,480,106.7C520,117,560,139,600,138.7C640,139,680,117,720,133.3C760,149,800,203,840,229.3C880,256,920,256,960,229.3C1000,203,1040,149,1080,117.3C1120,85,1160,75,1200,106.7C1240,139,1280,213,1320,202.7C1360,192,1400,96,1420,48L1440,0L1440,0L1420,0C1400,0,1360,0,1320,0C1280,0,1240,0,1200,0C1160,0,1120,0,1080,0C1040,0,1000,0,960,0C920,0,880,0,840,0C800,0,760,0,720,0C680,0,640,0,600,0C560,0,520,0,480,0C440,0,400,0,360,0C320,0,280,0,240,0C200,0,160,0,120,0C80,0,40,0,20,0L0,0Z"></path></svg>