<?xml version="1.0" standalone="no"?><svg xmlns="http://www.w3.org/2000/svg" viewBox="0 0 1440 320"><path fill="#ffffff" fill-opacity="1" d="M0,96L30,128C60,160,120,224,180,224C240,224,300,160,360,133.3C420,107,480,117,540,122.7C600,128,660,128,720,160C780,192,840,256,900,266.7C960,277,1020,235,1080,218.7C1140,203,1200,213,1260,192C1320,171,1380,117,1410,90.7L1440,64L1440,320L1410,320C1380,320,1320,320,1260,320C1200,320,1140,320,1080,320C1020,320,960,320,900,320C840,320,780,320,720,320C660,320,600,320,540,320C480,320,420,320,360,320C300,320,240,320,180,320C120,320,60,320,30,320L0,320Z"></path></svg>